# xmcd
# 
# Track frame offsets:
#     150
#     20482
#     44105
#     56450
#     73909
#     89129
#     101423
#     117918
#     139253
#     152517
#     166554
#     182755
# 
# Disc length: 2592
# 
# Revision: 0
# Processed by: cddbd v1.5.2PL0 Copyright (c) Steve Scherf et al.
# Submitted via: fre:ac v1.0.17
# 
DISCID=a40a1e0c
DTITLE=Johnny Winter - Johnny Winter (Remastered)
DYEAR=1969
DGENRE=Blues-Rock
TTITLE0=I'm Yours And I'm Hers
TTITLE1=Be Careful With A Fool
TTITLE2=Dallas
TTITLE3=Mean Mistreater
TTITLE4=Leland Mississippi Blues
TTITLE5=Good Morning Little School Girl
TTITLE6=When You Got A Good Friend
TTITLE7=I'll Drown In My Own Tears
TTITLE8=Back Door Friend
TTITLE9=Country Girl (Previously Unissued Bonus Track)
TTITLE10=Dallas (Previously Unissued Alternate Take)
TTITLE11=Two Steps From The Blues (Previously Unissued Bonus Track)
EXTD=Johnny Winter (Remastered and Expanded]\n© 2004 Columbia/Legacy\n\nOriginally issued as Columbia Records CS 98261, April 7, 1969\nRemastered and Expanded CD Edition Released May 18, 2004\n\nJohnny Winter: guitar, vocals\nTommy Shannon (ex tracks 3,4,7,11
EXTD=): electric bass\n"Uncle" John Turner (ex 3,4,7,11): percussion\nWalter "Shakey" Horton (4,11): harmonica\nWillie Dixon (4,11): acoustic bass\nKarl Garin (6,8,12): trumpet\nEdgar Winter: alto sax (6), piano (8,12), horn arrangements (6,8,12]\n[?Stefa
EXTD=n] Stephen Ralph Sefsik (8,12): alto sax\nAlbert Wynn Butler (6,8,12): tenor sax\nNorman Ray (8,12): baritone sax\nPeggy Bowers, Carrie Hossell, Elsie Senter: backing vocals (8]\nRecorded Nashville US-TN, 1969-02 (ex track 7), and San Francisco US-CA
EXTD=, 1969-03-05 (7).\nProduced by Johnny Winter.\nTracks 1-9 originally issued as Columbia LP CS-9826 (1969-04-07).\nPreviously unissued tracks 10-12 mixed by Thom Cadley at Sony Music Studios, New York US-NY.\nReissue produced by Jerry Rappaport.\nMast
EXTD=ered by Joseph M. Palmaccio at Sony Music Studios, New York US-NY.\nCD: Columbia/Legacy CK 85734 (2004-05-18), UPC 696998573420.
EXTT0=(Johnny Winter)
EXTT1=(B.B. King/Joe Josea)
EXTT2=(Johnny Winter)
EXTT3=(James Gordon)
EXTT4=(Johnny Winter)
EXTT5=(Sonny Boy Williamson [I]]\nAKA "Good Morning, School Girl".
EXTT6=(Robert Johnson)
EXTT7=(Henry Glover)
EXTT8=(Sam "Lightnin'" Hopkins/Stan Lewis)
EXTT9=(B.B. King)
EXTT10=(Johnny Winter)
EXTT11=(John Riley Brown/Deadric Malone)
PLAYORDER=
